<svg width="402" height="101" viewBox="0 0 402 101" xmlns="http://www.w3.org/2000/svg"><title>20120427 - logo Voys 86x86</title><g fill="none" fill-rule="evenodd"><path d="M38.2 57.4L18.2 3H0l30.5 74.7h15.3L76 3H58.4l-20 54.4zM137.4 40.3c0 13-8.7 23.7-22.5 23.7-13.3 0-22.7-10.8-22.7-24 0-13 8.7-23.7 22.4-23.7 13.3 0 22.7 10.8 22.7 24zm17-.3c0-21.3-16.7-38.6-39.5-38.6S75.2 19 75.2 40.4c0 21 16.7 38.4 39.4 38.4 23 0 39.7-17.6 39.7-38.8zM230.3 3h-17.7l-19.2 55-21-55H154l31 74c-2.8 6.6-5.7 8.7-10.5 8.7-3.5 0-7-1-10-2.8l-5.7 12.5c5.2 2.8 10.4 4.5 17.5 4.5 12 0 18.6-5.6 24.5-20.8L230.3 3zM289.5 55.2V55c0-13.4-12.3-18.4-23-21.7-8.8-2.8-16.8-5-16.8-10.4v-.4c0-4.4 3.8-7.5 10.4-7.5 6.3 0 14 2.8 21 7.2l6.8-12c-8-5.3-18-8.6-27.3-8.6-14.7 0-26.4 8.6-26.4 22.7v.3c0 14.2 12.3 18.6 23.3 21.7C266 49 274 51 274 56.7v.3c0 5-4.3 8-11.6 8-7.6 0-16.3-3-24.4-9l-7.6 11.4c9.3 7.3 21 11 31.5 11 15.4 0 27.5-7.6 27.5-23.2z" fill="#2F3490"/><path d="M309.4 6.2C315.2.4 315.2.4 321 .4h60.5c4.7 0 5.6 0 8.7 3l-7.5 13h-83.4l10-10.2" fill="#A7CD45"/><path d="M397.4 10.5l-7.2-7.2L350 73l3.4 5.8h4.6c6 0 8 0 11.7-6 3.4-5 31-53.3 31-53.3 1.8-4-.4-6-3.3-9" fill="#0085C8"/><path d="M317.2 16.3h-18L332 73c2.5 4.5 6.7 5.8 12 5.8h9.4l-36.2-62.5" fill="#2F3490"/><path d="M299.3 16.3s18 0 32.5 25.2l-14.6-25.2h-18" fill="#1C1862"/><path d="M353.4 78.8l-3.4-6 12.7-22s-13 22.4-9.3 28" fill="#005988"/><path d="M390.2 3.3l-7.5 13h-38.3s33-.2 45.8-13" fill="#6B892B"/></g></svg>